<svg id="Layer_3" height="512" viewBox="0 0 64 64" width="512" xmlns="http://www.w3.org/2000/svg" fill="white" data-name="Layer 3"><path d="m50 1h-37a5.006 5.006 0 0 0 -5 5v8a5.006 5.006 0 0 0 5 5h6.22l.81 3.243a1 1 0 0 0 .97.757h6a1 1 0 0 0 .97-.757l.81-3.243h4.22a5.006 5.006 0 0 1 5 5v24a3 3 0 0 1 -3 3h-3v-15a1 1 0 0 0 -1-1h-14a1 1 0 0 0 -1 1v1h-5a1 1 0 0 0 -1 1v4a7.006 7.006 0 0 0 6 6.92v2.08h-7a1 1 0 0 0 -1 1v10a1 1 0 0 0 1 1h46a1 1 0 0 0 1-1v-55a6.006 6.006 0 0 0 -6-6zm-23.781 20h-4.438l-.5-2h5.438zm-14.219 21v-3h4v7.9a5.009 5.009 0 0 1 -4-4.9zm6-5h12v14h-12zm36 24h-44v-8h25a5.006 5.006 0 0 0 5-5v-24a7.008 7.008 0 0 0 -7-7h-20a3 3 0 0 1 -3-3v-8a3 3 0 0 1 3-3h37a4 4 0 0 1 4 4z"/><path d="m51 29h-6a1 1 0 0 0 -1 1v28a1 1 0 0 0 1 1h6a1 1 0 0 0 1-1v-28a1 1 0 0 0 -1-1zm-1 2v12h-4v-12zm-4 26v-12h4v12z"/><path d="m22 32h6v2h-6z"/><path d="m16 29h8v2h-8z"/><path d="m17 26h9v2h-9z"/><path d="m29 5h-16a1 1 0 0 0 -1 1v4a1 1 0 0 0 1 1h16a1 1 0 0 0 1-1v-4a1 1 0 0 0 -1-1zm-1 4h-14v-2h14z"/><path d="m13 13h2v2h-2z"/><path d="m17 13h2v2h-2z"/><path d="m21 13h2v2h-2z"/></svg>