<?xml version="1.0" encoding="iso-8859-1"?>
<!-- Generator: Adobe Illustrator 16.0.0, SVG Export Plug-In . SVG Version: 6.00 Build 0)  -->
<!DOCTYPE svg PUBLIC "-//W3C//DTD SVG 1.1//EN" "http://www.w3.org/Graphics/SVG/1.1/DTD/svg11.dtd">
<svg version="1.1" id="Capa_1" xmlns="http://www.w3.org/2000/svg" fill="white" xmlns:xlink="http://www.w3.org/1999/xlink" x="0px" y="0px"
	 width="554.921px" height="554.922px" viewBox="0 0 554.921 554.922" style="enable-background:new 0 0 554.921 554.922;"
	 xml:space="preserve">
<g>
	<g>
		<circle cx="164.673" cy="40.794" r="40.794"/>
		<path d="M295.403,149.175c0,0-0.771,2.515-2.075,6.785c2.539,1.229,4.968,2.711,7.21,4.48c6.378-3.811,12.488-5.738,18.197-5.738
			c0.804,0,1.611,0.039,2.396,0.12c4.471,0.445,8.43,2.099,11.504,5.03c1.396,0.034,11.169,0,11.169,0h0.01
			c1.262-0.019,2.003,1.057,1.668,2.267l-19.731,64.58c12.885,6.331,22.777,20.125,28.605,40.373
			c0.077,0.268,0.163,0.588,0.259,0.952c8.998,29.347,22.046,71.895,22.137,72.187c1.755,5.724,1.177,11.781-1.625,17.06
			c-2.802,5.283-7.497,9.156-13.211,10.911c-2.138,0.654-4.347,0.989-6.569,0.989c-4.667,0-9.046-1.415-12.675-3.906l17.724,58.217
			c0.808,2.864,0.249,5.952-1.492,8.262c-1.688,2.233-4.312,3.515-7.195,3.515h-20.799c-0.004,42.5-0.004,92.226-0.004,92.254
			c0,15.143,12.273,27.411,27.41,27.411c15.143,0,27.411-12.273,27.411-27.411l0.01-151.666c0-1.263,1.023-2.285,2.285-2.285h0.038
			h4.385h0.033c1.263,0,2.286,1.022,2.286,2.285l0.009,151.666c0,15.143,12.273,27.411,27.411,27.411
			c15.143,0,27.411-12.273,27.411-27.411c0-0.053-0.01-151.666-0.01-151.666c0-1.263,0.923-2.29,2.189-2.29h44.614
			c2.214,0,2.558-2.118,2.214-3.333L435.01,162.113c-0.335-1.214,0.401-2.29,1.669-2.266h0.01c0,0,4.274,0,4.475,0
			c2.219,0,3.17,1.817,3.356,2.256c0,0,31.762,103.567,31.776,103.567c3.447,11.217,15.333,17.518,26.551,14.076
			c11.226-3.447,17.532-15.333,14.09-26.56c-0.015-0.043-31.747-103.658-31.848-104.016c-4.858-16.878-16.687-55.314-50.094-55.314
			h-89.614C309.531,93.856,300.255,132.292,295.403,149.175z"/>
		<path d="M52.075,279.746c11.222,3.442,23.103-2.864,26.55-14.076c0.009,0,31.777-103.567,31.777-103.567
			c0.186-0.439,1.138-2.257,3.356-2.257c0.2,0,4.475,0,4.475,0h0.01c1.263-0.019,2.003,1.057,1.669,2.267L56.32,370.222
			c-0.344,1.215,0,3.333,2.214,3.333h44.614c1.263,0,2.19,1.023,2.19,2.29c0,0-0.01,151.613-0.01,151.666
			c0,15.143,12.273,27.411,27.411,27.411c15.142,0,27.41-12.273,27.41-27.411l0.01-151.666c0-1.263,1.023-2.285,2.285-2.285h0.039
			h4.384h0.034c1.262,0,2.285,1.022,2.285,2.285l0.01,151.666c0,15.143,12.273,27.411,27.41,27.411
			c15.138,0,27.411-12.273,27.411-27.411c0-0.028-0.005-49.754-0.005-92.254h-23.284c-2.888,0-5.513-1.281-7.201-3.52
			c-1.745-2.31-2.304-5.397-1.491-8.262l17.791-58.537c-3.715,2.692-8.267,4.227-13.134,4.227c-2.224,0-4.433-0.334-6.57-0.989
			c-5.718-1.755-10.408-5.628-13.21-10.911c-2.802-5.278-3.381-11.341-1.626-17.055c0.201-0.655,22.104-72.178,22.419-73.225
			c0.976-3.385,4.887-15.534,13.354-26.374c5.278-6.761,11.327-11.662,17.896-14.606l-19.522-63.892
			c-0.334-1.214,0.402-2.29,1.669-2.266h0.01c0,0,9.118,0.029,10.595,0c3.041-2.84,6.929-4.59,11.312-5.03
			c0.784-0.077,1.598-0.12,2.405-0.12c5.437,0,11.26,1.759,17.337,5.245c2.639-1.998,5.518-3.629,8.554-4.891
			c-1.134-3.71-1.798-5.876-1.798-5.876c-4.862-16.878-14.134-55.314-49.983-55.314h-89.61c-33.407,0-45.235,38.437-50.093,55.314
			c-0.1,0.358-31.838,103.978-31.848,104.016C34.542,264.417,40.848,276.304,52.075,279.746z"/>
		<circle cx="390.244" cy="40.794" r="40.794"/>
		<path d="M199.17,425.493c-0.244,0.855,0,2.348,1.559,2.348h30.968c0.89,0,1.54,0.722,1.54,1.611c0,0-0.01,106.12-0.01,106.158
			c0,10.662,8.645,19.312,19.312,19.312s19.312-8.645,19.312-19.312l0.01-106.158c0-0.89,0.717-1.611,1.611-1.611
			c0,0,5.957,0,6.665,0c0.707,0,1.635,0.717,1.635,1.611l0.01,106.158c0,10.662,8.645,19.312,19.312,19.312
			s19.312-8.645,19.312-19.312c0-0.038-0.01-106.158-0.01-106.158c0-0.89,0.65-1.611,1.54-1.611h29.768
			c1.559,0,1.803-1.492,1.559-2.348l-44.69-146.799c-0.234-0.855,0.187-1.611,1.076-1.597c0,0,6.607,0,6.751,0
			c1.563,0,2.233,1.281,2.367,1.587c0,0,22.275,72.489,22.28,72.489c2.429,7.898,10.801,12.34,18.704,9.916
			c7.908-2.424,12.351-10.801,9.931-18.704c-0.01-0.029-13.158-42.902-22.185-72.345c-0.091-0.359-0.177-0.669-0.249-0.923
			c-3.423-11.891-13.579-38.962-38.833-38.962h-64.327c-23.529,0-35.854,27.071-39.273,38.962
			c-0.072,0.253-22.424,73.239-22.434,73.268c-2.424,7.908,2.018,16.28,9.926,18.704c7.903,2.424,16.275-2.018,18.704-9.916
			c0.01,0,22.209-72.489,22.209-72.489c0.134-0.311,0.799-1.587,2.367-1.587c0.143,0,7.037,0,7.037,0
			c0.89-0.015,1.411,0.746,1.177,1.597L199.17,425.493z"/>
		<path d="M251.257,167.698c-4.796-3.084-11.265-6.134-17.505-5.508c-10.958,1.09-13.306,13.688-10.456,22.376
			c0.464,1.406,1.534,3.534,2.176,4.868c3.887,8.08,7.869,17.36,10.413,17.667c2.529,0.32-5.58-19.168,0.249-25.245
			c1.014-1.062,3.428-1.583,4.905-1.454c0.731,0.058,1.583,0.191,2.529,0.416c1.43,0.354,2.161,1.96,1.841,3.404
			c-0.497,2.233-0.756,4.552-0.756,6.938c0,17.504,14.196,31.695,31.695,31.695c17.504,0,31.695-14.196,31.695-31.695
			c0-2.161-0.225-4.279-0.641-6.325c-0.297-1.444,0.425-3.146,1.821-3.615c1.511-0.507,2.85-0.731,3.911-0.827
			c1.463-0.12,3.878,0.392,4.905,1.454c5.824,6.072-2.29,25.565,0.249,25.245c2.52-0.296,6.502-9.572,10.39-17.657
			c0.641-1.325,1.716-3.462,2.176-4.868c2.85-8.688,0.497-21.286-10.457-22.372c-6.642-0.66-13.555,2.835-18.427,6.111
			c-1.229,0.827-2.979,0.65-4.055-0.354c-5.661-5.269-13.249-8.496-21.593-8.496c-8.022,0-15.353,2.993-20.932,7.908
			C254.284,168.329,252.496,168.501,251.257,167.698z"/>
	</g>
</g>
<g>
</g>
<g>
</g>
<g>
</g>
<g>
</g>
<g>
</g>
<g>
</g>
<g>
</g>
<g>
</g>
<g>
</g>
<g>
</g>
<g>
</g>
<g>
</g>
<g>
</g>
<g>
</g>
<g>
</g>
</svg>
