<?xml version="1.0"?>
<svg xmlns="http://www.w3.org/2000/svg" width="512" fill="white" height="512" viewBox="0 0 128 128"><g><path d="M42.453,32.809,41.9,36.03a1.75,1.75,0,0,0,2.539,1.845l2.894-1.521,2.894,1.521a1.75,1.75,0,0,0,2.539-1.845l-.552-3.221,2.341-2.283a1.749,1.749,0,0,0-.97-2.984l-3.235-.471-1.267-2.565V14.25H62.25V29.622a7.75,7.75,0,1,0,3.5,0V14.25H78.917V24.506L77.65,27.071l-3.235.471a1.749,1.749,0,0,0-.97,2.984l2.341,2.283-.552,3.221a1.75,1.75,0,0,0,2.539,1.845l2.894-1.521,2.894,1.521A1.75,1.75,0,0,0,86.1,36.03l-.553-3.221,2.341-2.283a1.749,1.749,0,0,0-.97-2.984l-3.235-.471-1.266-2.565v-10.3A4.738,4.738,0,0,0,82,4.75H46a4.738,4.738,0,0,0-.417,9.458v10.3l-1.266,2.565-3.235.471a1.749,1.749,0,0,0-.97,2.984Zm25.8,4.356A4.25,4.25,0,1,1,64,32.915,4.255,4.255,0,0,1,68.25,37.165Zm14.195-6.221a1.75,1.75,0,0,0-.5,1.549l.108.634-.57-.3a1.749,1.749,0,0,0-1.628,0l-.569.3.108-.634a1.75,1.75,0,0,0-.5-1.549l-.461-.449.637-.093a1.747,1.747,0,0,0,1.318-.957l.285-.577.285.577a1.746,1.746,0,0,0,1.317.957l.637.093ZM44.75,9.5A1.252,1.252,0,0,1,46,8.25H82a1.25,1.25,0,0,1,0,2.5H46A1.252,1.252,0,0,1,44.75,9.5Zm.981,20.9a1.746,1.746,0,0,0,1.317-.957l.285-.577.285.577a1.747,1.747,0,0,0,1.318.957l.637.093-.461.449a1.75,1.75,0,0,0-.5,1.549l.108.634-.569-.3a1.755,1.755,0,0,0-1.628,0l-.57.3.108-.634a1.75,1.75,0,0,0-.5-1.549l-.461-.449Z"/><path d="M121.5,46.62h-6a1.75,1.75,0,0,0-1.75,1.75v7.88H14.25V48.37a1.75,1.75,0,0,0-1.75-1.75h-6a1.75,1.75,0,0,0-1.75,1.75V121.5a1.75,1.75,0,0,0,1.75,1.75h6a1.75,1.75,0,0,0,1.75-1.75V105.558h99.5V121.5a1.75,1.75,0,0,0,1.75,1.75h6a1.75,1.75,0,0,0,1.75-1.75V48.37A1.75,1.75,0,0,0,121.5,46.62Zm-4.25,3.5h2.5V90.058h-2.5V50.12Zm2.5,51.938H8.25v-8.5h4.231l.019,0,.019,0H115.481l.019,0,.019,0h4.231ZM14.25,65.75h6V78.74a13.759,13.759,0,0,0-6,3.936Zm18,0V78.06H24.5c-.253,0-.5.024-.75.038V65.75Zm12,0V78.06h-8.5V65.75Zm12,0V78.06h-8.5V65.75Zm12,0V78.06h-8.5V65.75Zm12,0V78.06h-8.5V65.75Zm12,0V78.06h-8.5V65.75Zm12,0V78.1c-.25-.014-.5-.038-.75-.038H95.75V65.75Zm9.5,0V82.676a13.759,13.759,0,0,0-6-3.936V65.75Zm-18,24.308v-8.5h7.75c.253,0,.5.019.75.038v8.46Zm-12,0v-8.5h8.5v8.5Zm-12,0v-8.5h8.5v8.5Zm-12,0v-8.5h8.5v8.5Zm-12,0v-8.5h8.5v8.5Zm-12,0v-8.5h8.5v8.5Zm-12,0V81.6c.249-.019.5-.038.75-.038h7.75v8.5Zm-9.339,0a10.264,10.264,0,0,1,5.839-7.564v7.564Zm93.339-7.564a10.264,10.264,0,0,1,5.839,7.564H107.75Zm6-22.744v2.5H14.25v-2.5Zm-103-9.63V90.058H8.25V50.12Zm0,69.63H8.25V105.558h2.5Zm106.5,0V105.558h2.5V119.75Z"/></g></svg>
